<?xml version="1.0" ?><!DOCTYPE svg  PUBLIC '-//W3C//DTD SVG 1.1//EN'  'http://www.w3.org/Graphics/SVG/1.1/DTD/svg11.dtd'><svg height="512px" style="enable-background:new 0 0 512 512;" version="1.1" viewBox="0 0 512 512" width="512px" xml:space="preserve" xmlns="http://www.w3.org/2000/svg" xmlns:xlink="http://www.w3.org/1999/xlink"><g id="_x33_01_x2C__mountain_x2C__landscape_x2C__hill_x2C__nature_x2C__sun"><g><path d="M254.57,295.217l5.836,24.668l0.051,0.385l1.256,24.18l1.415,10.537    l1.351,0.227h44.774v-0.017l-0.016-0.035l-0.009-0.052l-6.727-28.908l-8.067-7.816l-15.764-2.494    c-0.349-0.035-0.698-0.175-0.995-0.401l-1.438-1.082c-0.428-0.331-0.742-0.802-0.828-1.378l-2.008-12.771l-1.83-7.712    l-0.009-0.034l-0.009-0.035l-6.168-25.959c-4.063,7.728-7.668,13.887-12.229,21.423L254.57,295.217z M277.572,299.264    l1.918,12.248l0.332,0.244l15.945,2.512c0.455,0.07,0.854,0.279,1.16,0.594l9.004,8.705c0.305,0.297,0.496,0.663,0.584,1.047    l6.489,27.861c19.94,0,39.882,0.087,59.823-0.035c18.195-1.744,24.318-1.675,41.154-0.872l-14.498-18.092    c-0.235-0.278-0.409-0.593-0.488-0.977l-6.402-30.06l-17.848-9.159c-0.664-0.313-1.151-0.942-1.23-1.728l-2.46-23.656    l-18.797-18.283c-0.837-0.82-0.854-2.181-0.035-3.035c0.819-0.838,2.181-0.855,3.026-0.035l19.34,18.824    c0.383,0.366,0.593,0.837,0.637,1.325l2.425,23.273l17.795,9.142c0.603,0.297,0.984,0.854,1.116,1.465l6.516,30.549l16.503,20.604    l35.103-2.547l0.522,0.018l24.495,3.244h6.298l-9.953-18.946l-2.939-3.297l-0.297-0.419l-4.527-8.375l-17.21-23.551    c-0.141-0.209-0.253-0.42-0.314-0.646l-1.735-5.635l-5.164,17.254c-0.235,0.803-0.881,1.344-1.641,1.5l-15.641,4.258    c-1.133,0.314-2.302-0.35-2.616-1.482l-3.585-21.965c-7.789-16.766-13.79-28.961-19.618-46.022l-18.1,8.636    c-0.775,0.366-1.666,0.227-2.285-0.297l-4.371-3.088c-0.436-0.314-0.716-0.75-0.837-1.221l-7.014-24.094l-1.85-1.447l-9.002-3.176    c-0.811-0.297-1.343-1.012-1.421-1.814c-1.563-9.891-3.447-19.992-4.703-29.885l-11.723-3.663c-0.68-0.21-1.178-0.716-1.396-1.344    l-5.854-17.044l-7.824,17.654c-3.785,16.173-6.926,31.316-11.879,47.053c-0.262,0.854-1.021,1.412-1.867,1.5l-11.899,1.866    l-1.378,2.582l-0.27,0.401l-13.391,15.562c-2.521,12.979-4.798,25.89-7.842,38.747L277.572,299.264z M259.734,194.641    c4.195,0,7.998,1.71,10.754,4.449l0.105,0.122c2.687,2.757,4.344,6.507,4.344,10.642c0,4.188-1.701,7.99-4.457,10.747    c-2.748,2.739-6.551,4.448-10.746,4.448c-4.187,0-7.982-1.691-10.739-4.448c-2.764-2.774-4.466-6.56-4.466-10.747    s1.702-7.99,4.448-10.746C251.752,196.351,255.547,194.641,259.734,194.641z M224.292,172.188    c-1.447-2.896-8.521,0.646-8.539,0.646c-1.1,0.541-2.434,0.104-2.983-0.995c-0.551-1.099-0.105-2.442,0.993-2.983    c0.026-0.018,8.018-4.012,12.519-0.977c4.501-3.035,12.49,0.959,12.517,0.977c1.091,0.541,1.544,1.885,0.995,2.983    c-0.549,1.099-1.893,1.536-2.992,0.995c-0.018,0-7.084-3.542-8.532-0.646l0,0l-0.026,0.053l0,0l-0.026,0.053l0,0l-0.026,0.035    l-0.009,0.017l-0.016,0.035h-0.009l-0.026,0.034v0.018l-0.026,0.035l-0.009,0.018l-0.018,0.018l-0.018,0.018l-0.018,0.035    l-0.018,0.018l-0.018,0.018l-0.018,0.018l-0.018,0.034l-0.018,0.018l-0.018,0.018l-0.018,0.018l-0.018,0.017l-0.018,0.018    l-0.024,0.035h-0.009l-0.035,0.035l-0.009,0.018l-0.026,0.018l-0.018,0.018l-0.018,0.017l-0.018,0.018l-0.035,0.018l-0.009,0.018    l-0.026,0.017l-0.018,0.018l-0.035,0.018l-0.009,0.018l-0.026,0.018h-0.016l-0.035,0.035h-0.009l-0.044,0.035l0,0l-0.044,0.018    h-0.009l-0.035,0.035h-0.009l-0.044,0.017v0.018l-0.052,0.017l0,0l-0.042,0.018h-0.009l-0.035,0.018l-0.018,0.018l-0.035,0.018    h-0.018l-0.035,0.018h-0.018l-0.035,0.018h-0.018l-0.035,0.018h-0.018l-0.024,0.018h-0.026l-0.026,0.018h-0.026h-0.026    l-0.026,0.018h-0.026l-0.035,0.018h-0.018h-0.035h-0.018l-0.086,0.017h-0.018l-0.044,0.018h-0.009h-0.044h-0.018h-0.035h-0.018    h-0.035h-0.016h-0.035h-0.018h-0.035h-0.018h-0.035h-0.018h-0.035h-0.018h-0.035h-0.026h-0.033h-0.018l-0.035-0.018h-0.018    l-0.087-0.017h-0.026h-0.026h-0.026l-0.035-0.018h-0.018l-0.024-0.018h-0.026h-0.026l-0.026-0.018h-0.026l-0.026-0.018h-0.026    l-0.026-0.018h-0.017l-0.035-0.018h-0.018l-0.034-0.018h-0.018l-0.035-0.018l-0.018-0.018l-0.035-0.018h-0.009l-0.044-0.018    h-0.009l-0.044-0.017v-0.018l-0.053-0.017l0,0l-0.042-0.035l0,0l-0.044-0.018h-0.009l-0.035-0.035h-0.009l-0.035-0.035h-0.018    l-0.035-0.018l-0.009-0.018l-0.026-0.018l-0.018-0.018l-0.026-0.017l-0.009-0.018l-0.033-0.018l-0.018-0.018l-0.018-0.017    l-0.018-0.018l-0.026-0.018l-0.018-0.018l-0.026-0.035h-0.009l-0.026-0.035l-0.018-0.018l-0.018-0.017l-0.017-0.018l-0.018-0.018    l-0.018-0.018l-0.018-0.034l-0.018-0.018l-0.016-0.018l-0.017-0.018l-0.018-0.035l-0.018-0.018l-0.018-0.018l-0.009-0.018    l-0.026-0.035v-0.018l-0.035-0.034l0,0l-0.018-0.035l-0.009-0.017l-0.026-0.035l0,0l-0.026-0.053h-0.009L224.292,172.188    L224.292,172.188z M243.343,148.078c-1.562-2.723-8.47,0.732-8.487,0.732c-1.099,0.559-2.434,0.104-2.983-0.994    c-0.549-1.1-0.104-2.426,0.995-2.984c0.026-0.017,8.007-3.994,12.508-0.977c4.51-3.018,12.501,0.96,12.519,0.977    c1.098,0.559,1.553,1.885,0.994,2.984c-0.542,1.099-1.884,1.553-2.984,0.994c-0.016,0-7.082-3.541-8.53-0.646    c-0.541,1.099-1.884,1.553-2.983,1.012C243.901,148.933,243.536,148.531,243.343,148.078z M162.953,171.699    c-1.448-2.896-8.523,0.646-8.541,0.646c-1.098,0.559-2.434,0.104-2.992-0.994c-0.541-1.099-0.097-2.425,1.004-2.983    c0.026,0,8.007-3.995,12.517-0.959c4.501-3.036,12.492,0.959,12.509,0.959c1.099,0.559,1.553,1.885,0.993,2.983    c-0.54,1.099-1.883,1.553-2.983,0.994c-0.018,0-7.082-3.542-8.53-0.646v0.018l-0.026,0.035h-0.009l-0.018,0.053l0,0l-0.026,0.052    h-0.009l-0.018,0.034l-0.009,0.018l-0.026,0.035l0,0l-0.035,0.035v0.018l-0.026,0.035l-0.009,0.018l-0.018,0.018l-0.018,0.018    l-0.016,0.034l-0.017,0.018l-0.018,0.018l-0.018,0.018l-0.018,0.034h-0.018l-0.026,0.035l-0.009,0.018l-0.026,0.018l-0.009,0.018    l-0.035,0.018l-0.018,0.018l-0.018,0.034h-0.018l-0.026,0.035h-0.008l-0.034,0.034h-0.018l-0.026,0.035h-0.009l-0.035,0.035    h-0.009l-0.035,0.018l-0.009,0.018l-0.035,0.018l-0.018,0.018l-0.035,0.018l0,0l-0.044,0.035h-0.009l-0.042,0.017l0,0    l-0.044,0.035l0,0l-0.053,0.018l0,0l-0.044,0.034h-0.009l-0.043,0.018h-0.009l-0.035,0.018h-0.018l-0.033,0.018l-0.018,0.018    h-0.035l-0.018,0.018h-0.035l-0.018,0.018h-0.035l-0.018,0.018h-0.035l-0.018,0.017h-0.035h-0.025l-0.018,0.018h-0.035h-0.026    l-0.026,0.018h-0.026l-0.088,0.018h-0.018h-0.035h-0.018h-0.033h-0.018l-0.035,0.017h-0.018h-0.035h-0.018h-0.035h-0.018h-0.044    h-0.009h-0.042h-0.009h-0.044h-0.009l-0.044-0.017h-0.018h-0.044h-0.009h-0.044h-0.009l-0.095-0.018h-0.018l-0.035-0.018h-0.018    h-0.035l-0.018-0.018h-0.035h-0.018l-0.035-0.017h-0.018l-0.026-0.018h-0.024l-0.026-0.018h-0.026l-0.026-0.018h-0.035    l-0.009-0.018l-0.035-0.018h-0.017l-0.035-0.018h-0.018l-0.035-0.018h-0.018l-0.033-0.034h-0.009l-0.044-0.018l0,0l-0.053-0.035    l0,0l-0.044-0.017h-0.009l-0.035-0.035h-0.009l-0.043-0.018v-0.018l-0.044-0.018l-0.007-0.018l-0.035-0.018h-0.009l-0.026-0.035    h-0.018l-0.035-0.035h-0.009l-0.026-0.034h-0.018l-0.026-0.035h-0.009l-0.035-0.034l-0.009-0.018l-0.026-0.018l-0.016-0.018    l-0.018-0.018l-0.018-0.018l-0.026-0.035h-0.009l-0.026-0.034l-0.009-0.018l-0.026-0.018l-0.009-0.018l-0.026-0.034l-0.009-0.018    l-0.026-0.018l-0.009-0.018l-0.018-0.035l-0.018-0.018l-0.018-0.035h-0.009l-0.026-0.035v-0.018l-0.024-0.034h-0.009l-0.018-0.052    l0,0l-0.035-0.053l0,0l-0.018-0.035V171.699z M257.588,185.691c0-1.169,0.969-2.146,2.146-2.146c1.177,0,2.146,0.978,2.146,2.146    v5.564c0,1.188-0.969,2.146-2.146,2.146c-1.178,0-2.146-0.959-2.146-2.146V185.691z M279.587,195.914    c1.021-0.575,2.329-0.227,2.913,0.803c0.584,1.012,0.235,2.32-0.784,2.914l-4.824,2.773c-1.013,0.576-2.319,0.227-2.913-0.785    c-0.577-1.029-0.228-2.338,0.794-2.914L279.587,195.914z M281.716,220.077c1.02,0.575,1.368,1.884,0.784,2.913    c-0.584,1.012-1.892,1.361-2.913,0.785l-4.814-2.773c-1.021-0.594-1.371-1.902-0.794-2.914c0.594-1.029,1.9-1.377,2.913-0.803    L281.716,220.077z M261.88,233.999c0,1.187-0.969,2.146-2.146,2.146c-1.178,0-2.146-0.959-2.146-2.146v-5.565    c0-1.186,0.969-2.146,2.146-2.146c1.177,0,2.146,0.961,2.146,2.146V233.999z M239.881,223.775    c-1.021,0.576-2.33,0.227-2.915-0.785c-0.584-1.029-0.235-2.338,0.795-2.913l4.815-2.792c1.011-0.574,2.32-0.227,2.913,0.803    c0.575,1.012,0.226,2.32-0.785,2.914L239.881,223.775z M237.761,199.631c-1.03-0.594-1.379-1.902-0.795-2.914    c0.584-1.029,1.893-1.378,2.915-0.803l4.824,2.791c1.011,0.576,1.36,1.885,0.785,2.914c-0.593,1.012-1.902,1.361-2.913,0.785    L237.761,199.631z M268.448,190.489c0.584-1.013,1.894-1.378,2.913-0.786c1.021,0.576,1.37,1.902,0.786,2.914l-1.693,2.948    c-0.594,1.013-1.9,1.36-2.913,0.785c-1.03-0.593-1.38-1.901-0.793-2.913L268.448,190.489z M280.853,207.708    c1.186,0,2.146,0.96,2.146,2.146c0,1.169-0.96,2.146-2.146,2.146h-3.385c-1.187,0-2.146-0.978-2.146-2.146    c0-1.186,0.96-2.146,2.146-2.146H280.853z M272.147,227.072c0.593,1.013,0.243,2.338-0.786,2.914    c-1.011,0.594-2.32,0.244-2.913-0.768l-1.7-2.948c-0.587-1.013-0.237-2.32,0.775-2.913c1.03-0.594,2.337-0.244,2.931,0.768    L272.147,227.072z M251.02,229.219c-0.584,1.012-1.902,1.361-2.915,0.768c-1.028-0.576-1.377-1.901-0.785-2.914l1.692-2.947    c0.593-1.012,1.902-1.361,2.932-0.768c1.011,0.593,1.36,1.9,0.775,2.913L251.02,229.219z M238.607,212    c-1.177,0-2.137-0.978-2.137-2.146c0-1.186,0.96-2.146,2.137-2.146H242c1.187,0,2.145,0.96,2.145,2.146    c0,1.169-0.958,2.146-2.145,2.146H238.607z M247.321,192.617c-0.584-1.012-0.226-2.338,0.785-2.914    c1.03-0.592,2.339-0.227,2.915,0.786l1.7,2.948c0.584,1.012,0.235,2.32-0.793,2.913c-1.013,0.575-2.322,0.228-2.915-0.785    L247.321,192.617z M259.202,357.533c-0.044-0.121-0.079-0.262-0.097-0.4c-1.641-12.16-2.154-21.965-2.783-34.143l-0.026-0.453    l-0.009-0.297l-0.017-0.314l-0.026-0.453l-0.009-0.156l-0.035-0.629l-0.121-0.506l-0.097-0.418l-0.026-0.105l-0.018-0.069    c-2.511-10.607-5.059-20.952-7.144-31.647c-0.044-0.262-0.044-0.523-0.009-0.768c-1.674-8.095-3.297-16.242-4.954-24.756    l-14.42-16.748l-0.253-0.384l-1.518-2.843l-12.892-2.042c-0.837-0.069-1.597-0.646-1.867-1.5    c-5.32-16.905-8.697-33.183-12.77-50.559l-8.584-19.382l-6.421,18.719c-0.208,0.611-0.714,1.135-1.386,1.344l-12.709,3.96    c-1.36,10.677-3.367,21.599-5.059,32.258c-0.087,0.785-0.619,1.5-1.421,1.779l-9.727,3.419l-2.005,1.588l-7.572,25.96    c-0.123,0.488-0.402,0.925-0.839,1.222l-4.701,3.35c-0.619,0.505-1.509,0.645-2.285,0.278l-19.618-9.351    c-6.289,18.44-12.727,31.524-21.145,49.65l-3.855,23.588c-0.306,1.134-1.483,1.814-2.618,1.5l-16.818-4.588    c-0.749-0.157-1.404-0.698-1.639-1.483l-5.698-19.068l-2.023,6.56c-0.07,0.227-0.173,0.437-0.323,0.628l-18.474,25.314    l-4.885,9.054l-0.297,0.402l-3.185,3.559l-10.825,20.621h7.031l26.351-3.489l0.524-0.018l38.834,2.809    c21.991-1.081,27.913-1.343,49.137,0.698l9.193,0.053h48.858l23.631-18.424l-29.902-13.799c-0.209-0.088-0.402-0.227-0.584-0.402    c-0.846-0.802-0.881-2.162-0.062-3.018l14.113-14.602l-1.447-25.629l-12.543-26.082c-0.507-1.064-0.062-2.338,1.002-2.844    c1.065-0.506,2.348-0.052,2.853,1.012l12.718,26.467c0.13,0.262,0.2,0.522,0.209,0.802l1.536,26.972    c0.026,0.61-0.2,1.187-0.593,1.605l-12.675,13.102l30.347,14.01c1.074,0.487,1.536,1.762,1.048,2.843    c-0.167,0.349-0.419,0.646-0.716,0.854l-21.991,17.133h1.362l43.482-3.717l2.392-0.977    C259.777,362.122,259.481,359.784,259.202,357.533z" style="fill-rule:evenodd;clip-rule:evenodd;"/></g></g><g id="Layer_1"/></svg>